<svg aria-hidden="true" style="position: absolute; width: 0; height: 0; overflow: hidden;" version="1.1" xmlns="http://www.w3.org/2000/svg" xmlns:xlink="http://www.w3.org/1999/xlink">
<defs>
<symbol id="icon-windows8" viewBox="0 0 32 32">
<path d="M0.011 16l-0.011-9.752 12-1.63v11.382zM14 4.328l15.996-2.328v14h-15.996zM30 18l-0.004 14-15.996-2.25v-11.75zM12 29.495l-11.99-1.644-0.001-9.851h11.991z"></path>
</symbol>
<symbol id="icon-foursquare" viewBox="0 0 32 32">
<path d="M26.611 2.815c-0.377-0.513-0.975-0.815-1.611-0.815h-19c-1.105 0-2 0.895-2 2v24c0 0.809 0.487 1.538 1.235 1.848 0.247 0.102 0.507 0.152 0.765 0.152 0.521 0 1.032-0.203 1.415-0.586l7.414-7.414h5.172c0.875 0 1.648-0.569 1.909-1.403l5-16c0.19-0.607 0.079-1.269-0.298-1.781zM21.030 10h-7.030c-1.105 0-2 0.895-2 2s0.895 2 2 2h5.78l-1.25 4h-4.53c-0.53 0-1.039 0.211-1.414 0.586l-4.586 4.586v-17.172h14.28l-1.25 4z"></path>
</symbol>
<symbol id="icon-html-five" viewBox="0 0 32 32">
<path d="M1.892 0l2.567 28.801 11.524 3.199 11.554-3.204 2.572-28.796h-28.216zM24.52 9.42h-13.517l0.322 3.617h12.874l-0.97 10.844-7.245 2.008-7.237-2.008-0.495-5.547h3.547l0.252 2.82 3.933 1.060 0.009-0.002 3.935-1.062 0.408-4.58h-12.242l-0.953-10.681h17.694l-0.316 3.532z"></path>
</symbol>
</defs>
</svg>
